<svg id="Layer_1" height="512" viewBox="0 0 512 512" width="512" xmlns="http://www.w3.org/2000/svg" data-name="Layer 1"><path d="m458.08 100.6v239.11h-404.16v-239.11a30 30 0 0 1 30-30h344.16a30 30 0 0 1 30 30z" fill="#7d8595"/><path d="m424.23 102.4v204.86h-337.46v-204.86z" fill="#a0eaea"/><path d="m87 102h30v205h-30z" fill="#7bbfbe"/><path d="m492 405.4v6a30 30 0 0 1 -30 30h-412a30 30 0 0 1 -30-30v-5.97h168.49l7.36-22.25a4.013 4.013 0 0 1 3.8-2.74h112.7a3.987 3.987 0 0 1 3.79 2.74l7.37 22.25z" fill="#7d8595"/><path d="m458.97 339.71 33.03 65.69-168.49.03-7.37-22.25a3.987 3.987 0 0 0 -3.79-2.74h-112.7a4.013 4.013 0 0 0 -3.8 2.74l-7.36 22.25h-168.49l33.03-65.72z" fill="#b0b5ca"/><path d="m339.12 184.57c-9.39 1.24-17.54 2.3-25.21 3.18l-115.66.29q-12.54-1.125-25.03-2.7l.01 41.28c5.29-.67 13.86-1.67 24.75-2.64l115.76.02c15.68 1.66 25.38 3.42 25.38 3.42l.08-.05.01-42.74z" fill="#61617f"/><path d="m308.03 213.14a48.716 48.716 0 0 0 -.41-16.73l7.14-6.73-7.14-16.12-9.69.71a54.24 54.24 0 0 0 -12.14-11.53l.2-9.79-16.42-6.43-6.43 7.45a48.716 48.716 0 0 0 -16.73.41l-6.73-7.14-16.12 7.14.71 9.69a54.692 54.692 0 0 0 -11.53 12.14l-9.79-.2-6.42 16.42 7.44 6.43a48.716 48.716 0 0 0 .41 16.73l-7.14 6.73 7.14 16.12 9.69-.71a54.465 54.465 0 0 0 12.14 11.53l-.2 9.79 16.42 6.42 6.43-7.44a48.716 48.716 0 0 0 16.73-.41l6.73 7.14 16.12-7.14-.71-9.69a54.465 54.465 0 0 0 11.53-12.14l9.79.2 6.42-16.42z" fill="#e87187"/><path d="m280.02 181.05a34.125 34.125 0 1 1 -24.15-10.01 34.143 34.143 0 0 1 24.15 10.01z" fill="#ad5e73"/><path d="m173.22 185.34a40.934 40.934 0 0 1 .01 41.28c-.38.66-.78 1.31-1.21 1.96a40.943 40.943 0 0 1 -68.11.31l39.92-.43 10.87-22.46-10.87-22.46-40.13-.11a40.967 40.967 0 0 1 69.52 1.91z" fill="#6d6d93"/><path d="m368.17 228.46 40.13.11a40.945 40.945 0 0 1 -69.09-43.94c.25-.4.51-.81.77-1.21a40.943 40.943 0 0 1 68.11-.31l-39.92.43-10.87 22.46z" fill="#6d6d93"/><g fill="#284268"><path d="m103.686 189.427 36.378.1 7.967 16.473-7.982 16.5-36.2.393a6 6 0 0 0 -4.91 9.354 47 47 0 0 0 38.824 20.712 47.476 47.476 0 0 0 9.487-.959 46.622 46.622 0 0 0 29.535-19.77c4.4-.535 10.321-1.2 17.449-1.877l4.661 10.52a6.01 6.01 0 0 0 5.926 3.554l6.576-.484a60.085 60.085 0 0 0 8.751 8.309l-.139 6.672a6 6 0 0 0 3.812 5.713l16.425 6.427a6 6 0 0 0 6.729-1.668l4.346-5.036a54.292 54.292 0 0 0 12.1-.293l4.537 4.811a6 6 0 0 0 6.8 1.37l16.118-7.141a6 6 0 0 0 3.553-5.927l-.484-6.575a60.083 60.083 0 0 0 8.309-8.751l6.672.139a5.98 5.98 0 0 0 5.713-3.812l3.018-7.711c8.568.99 14.878 1.949 18.057 2.466a46.945 46.945 0 0 0 77.592-1.053 6 6 0 0 0 -4.988-9.308l-36.378-.1-7.971-16.475 7.982-16.5 36.2-.393a6 6 0 0 0 4.91-9.354 46.924 46.924 0 0 0 -77.28-.79c-6.044.8-12.256 1.6-18.181 2.31l-4.494-10.142a6 6 0 0 0 -5.925-3.554l-6.576.484a59.985 59.985 0 0 0 -8.751-8.31l.139-6.672a6 6 0 0 0 -3.812-5.713l-16.424-6.427a6 6 0 0 0 -6.729 1.667l-4.347 5.036a54.413 54.413 0 0 0 -12.1.293l-4.536-4.811a6 6 0 0 0 -6.8-1.37l-16.118 7.141a6 6 0 0 0 -3.554 5.927l.485 6.576a60 60 0 0 0 -8.311 8.752l-6.672-.139a6.015 6.015 0 0 0 -5.713 3.812l-3.06 7.819c-5.855-.564-11.728-1.2-17.552-1.913a46.929 46.929 0 0 0 -78.055.392 6 6 0 0 0 4.988 9.308zm241.3-2.7a34.715 34.715 0 0 1 22.162-14.97 35.293 35.293 0 0 1 7.061-.717 34.7 34.7 0 0 1 19.2 5.8c.205.135.408.273.609.412l-25.913.281a6 6 0 0 0 -5.336 3.387l-10.869 22.466a6 6 0 0 0 0 5.225l10.864 22.46a6 6 0 0 0 5.384 3.388l26.159.074a34.944 34.944 0 0 1 -49.322-47.8zm-26.111 7.313a5.955 5.955 0 0 0 .788-.934c3.187-.384 6.443-.793 9.709-1.212a47.053 47.053 0 0 0 -.066 27.947c-2.3-.318-4.956-.662-7.891-1.015a5.984 5.984 0 0 0 -2.022-3.8l-5.036-4.346a54.41 54.41 0 0 0 -.293-12.1zm-111.861-11.946 5.6.117a5.993 5.993 0 0 0 5.063-2.589 48.127 48.127 0 0 1 10.253-10.8 6 6 0 0 0 2.323-5.195l-.4-5.477 8.371-3.709 3.82 4.052a6 6 0 0 0 5.543 1.767 42.421 42.421 0 0 1 14.664-.358 6 6 0 0 0 5.431-2.014l3.653-4.232 8.57 3.354-.117 5.6a6 6 0 0 0 2.589 5.063 48.085 48.085 0 0 1 10.795 10.251 5.988 5.988 0 0 0 5.194 2.323l5.477-.4 3.71 8.373-4.051 3.819a6 6 0 0 0 -1.768 5.542 42.5 42.5 0 0 1 .358 14.665 6 6 0 0 0 2.013 5.432l4.233 3.652-3.353 8.57-5.606-.117a6.018 6.018 0 0 0 -5.063 2.589 48.13 48.13 0 0 1 -10.251 10.8 6 6 0 0 0 -2.323 5.195l.4 5.477-8.372 3.709-3.819-4.051a6 6 0 0 0 -5.542-1.767 42.507 42.507 0 0 1 -14.666.357 5.992 5.992 0 0 0 -5.431 2.014l-3.653 4.232-8.57-3.353.117-5.6a6 6 0 0 0 -2.589-5.062 48.114 48.114 0 0 1 -10.8-10.252 6 6 0 0 0 -5.195-2.323l-5.478.4-3.709-8.373 4.051-3.819a6 6 0 0 0 1.768-5.542 42.5 42.5 0 0 1 -.358-14.665 6 6 0 0 0 -2.014-5.432l-4.232-3.652zm-16.4 11.243a5.978 5.978 0 0 0 1.994 3.637l5.036 4.347a54.4 54.4 0 0 0 .293 12.1l-4.811 4.537a5.958 5.958 0 0 0 -.442.487c-3.6.343-6.9.684-9.848 1.007a47.073 47.073 0 0 0 -.037-26.941q3.901.433 7.812.826zm-33.484-16.486a34.943 34.943 0 1 1 -38.534 58.3c-.2-.135-.408-.273-.609-.412l25.913-.281a6 6 0 0 0 5.336-3.387l10.864-22.46a6 6 0 0 0 0-5.225l-10.864-22.46a6 6 0 0 0 -5.384-3.388l-26.159-.074a35 35 0 0 1 39.434-.613z"/><path d="m255.872 245.335a40.144 40.144 0 1 0 -28.386-11.758 39.881 39.881 0 0 0 28.386 11.758zm-19.9-60.044a28.144 28.144 0 1 1 0 39.8 27.959 27.959 0 0 1 -.001-39.8z"/><path d="m464 337v-236.4a35.6 35.6 0 0 0 -35.6-35.6h-344.477a35.923 35.923 0 0 0 -35.923 35.923v236.077l-33.261 66.522a7 7 0 0 0 -.739 3.13v4.748a35.6 35.6 0 0 0 35.6 35.6h412.8a35.6 35.6 0 0 0 35.6-35.6v-4.748a7 7 0 0 0 -.739-3.13zm-404-236.4a23.622 23.622 0 0 1 23.923-23.6h344.154a23.622 23.622 0 0 1 23.923 23.6v233.4h-392zm-3.271 245.4h398.542l27 53.546-154.429-.046-6-18.385a10.22 10.22 0 0 0 -9.491-7.115h-112.713c-4.313 0-7.638 3.2-9.638 7.292l-5.844 17.708h-154.425zm405.271 89h-412a23.563 23.563 0 0 1 -24-24h162.49a6.006 6.006 0 0 0 5.7-4.121l6.904-20.879h109.806l6.909 21.1a6.1 6.1 0 0 0 5.7 4.224l162.491-.178a23.9 23.9 0 0 1 -24 23.854z"/><path d="m424 96h-337a6 6 0 0 0 -6 6v205a6 6 0 0 0 6 6h337a6 6 0 0 0 6-6v-205a6 6 0 0 0 -6-6zm-6 205h-325v-193h325z"/><path d="m70.067 358h-4.295a6 6 0 0 0 0 12h4.295a6 6 0 1 0 0-12z"/><path d="m163.067 358h-72a6 6 0 0 0 0 12h72a6 6 0 0 0 0-12z"/></g></svg>